<svg width="9" height="11" viewBox="0 0 9 11" fill="none" xmlns="http://www.w3.org/2000/svg">
<path d="M7.57971 1.69231H6.41056C6.2546 1.51824 6.05426 1.38505 5.82408 1.31852C5.63016 1.26252 5.48094 1.11259 5.4252 0.917762C5.27347 0.387751 4.78729 0 4.21096 0C3.63464 0 3.14849 0.387751 2.99673 0.917735C2.94091 1.11277 2.79132 1.26252 2.59719 1.31871C2.36722 1.38529 2.16709 1.51835 2.01129 1.69231H0.842193C0.377066 1.69231 0 2.07115 0 2.53847V10.1538C0 10.6212 0.377039 11 0.842167 11H7.57968C8.04484 11 8.42188 10.6212 8.42188 10.1538V2.53847C8.4219 2.07115 8.04486 1.69231 7.57971 1.69231ZM4.21639 0.846156C4.44896 0.846156 4.63748 1.03556 4.63748 1.26923C4.63748 1.50288 4.44896 1.69231 4.21639 1.69231C3.98381 1.69231 3.79529 1.50288 3.79529 1.26923C3.79529 1.03556 3.98381 0.846156 4.21639 0.846156ZM7.57974 10.1538H0.842193V2.53847H1.68439V3.38462H6.73754V2.53847H7.57974V10.1538Z" fill="#152766"/>
<path d="M4.63191 7.08752L6.32055 7.08327L6.32253 6.23889L4.6339 6.24313L4.63784 4.55502L3.79691 4.55698L3.79296 6.24513L2.10131 6.24912L2.09931 7.09348L3.791 7.08949L3.78734 8.77785L4.62825 8.77587L4.63191 7.08752Z" fill="#152766"/>
</svg>
